HIERARCHY
ROOT Hips
{
 OFFSET 0.000000 0.000000 0.000000
 CHANNELS 6 Xposition Yposition Zposition Yrotation Xrotation Zrotation
 JOINT Chest
 {
  OFFSET 0.000000 9.588913 -0.003946
  CHANNELS 3 Yrotation Xrotation Zrotation
  JOINT Chest2
  {
   OFFSET 0.000000 9.541882 0.008053
   CHANNELS 3 Yrotation Xrotation Zrotation
   JOINT Chest3
   {
    OFFSET 0.000000 9.501360 0.000000
    CHANNELS 3 Yrotation Xrotation Zrotation
    JOINT Chest4
    {
     OFFSET 0.000000 9.491660 0.000000
     CHANNELS 3 Yrotation Xrotation Zrotation
     JOINT Neck
     {
      OFFSET 0.000000 14.331917 0.000000
      CHANNELS 3 Yrotation Xrotation Zrotation
      JOINT Head
      {
       OFFSET 0.000000 8.884799 0.017034
       CHANNELS 3 Yrotation Xrotation Zrotation
       End Site
       {
        OFFSET 0.000000 16.896195 0.008993
       }
      }
     }
     JOINT RightCollar
     {
      OFFSET -2.923010 9.499495 0.000000
      CHANNELS 3 Yrotation Xrotation Zrotation
      JOINT RightShoulder
      {
       OFFSET -13.795216 0.000000 0.000000
       CHANNELS 3 Yrotation Xrotation Zrotation
       JOINT RightElbow
       {
        OFFSET -30.272209 0.000000 0.000000
        CHANNELS 3 Yrotation Xrotation Zrotation
        JOINT RightWrist
        {
         OFFSET -24.478199 0.000000 0.000000
         CHANNELS 3 Yrotation Xrotation Zrotation
         End Site
         {
          OFFSET -18.090752 0.000000 0.000000
         }
        }
       }
      }
     }
     JOINT LeftCollar
     {
      OFFSET 2.923010 9.499495 0.000000
      CHANNELS 3 Yrotation Xrotation Zrotation
      JOINT LeftShoulder
      {
       OFFSET 13.795216 0.000000 0.000000
       CHANNELS 3 Yrotation Xrotation Zrotation
       JOINT LeftElbow
       {
        OFFSET 30.272209 0.000000 0.000000
        CHANNELS 3 Yrotation Xrotation Zrotation
        JOINT LeftWrist
        {
         OFFSET 24.478199 0.000000 0.000000
         CHANNELS 3 Yrotation Xrotation Zrotation
         End Site
         {
          OFFSET 18.090752 0.000000 0.000000
         }
        }
       }
      }
     }
    }
   }
  }
 }
 JOINT RightHip
 {
  OFFSET -7.826875 0.019532 0.001973
  CHANNELS 3 Yrotation Xrotation Zrotation
  JOINT RightKnee
  {
   OFFSET 0.000000 -40.546152 -0.001885
   CHANNELS 3 Yrotation Xrotation Zrotation
   JOINT RightAnkle
   {
    OFFSET 0.000000 -39.417092 -0.003189
    CHANNELS 3 Yrotation Xrotation Zrotation
    JOINT RightToe
    {
     OFFSET 0.000000 -7.579396 17.243563
     CHANNELS 3 Yrotation Xrotation Zrotation
     End Site
     {
      OFFSET 0.000000 -1.500329 6.694466
     }
    }
   }
  }
 }
 JOINT LeftHip
 {
  OFFSET 7.826875 0.019532 0.001973
  CHANNELS 3 Yrotation Xrotation Zrotation
  JOINT LeftKnee
  {
   OFFSET 0.000000 -40.546152 -0.001885
   CHANNELS 3 Yrotation Xrotation Zrotation
   JOINT LeftAnkle
   {
    OFFSET 0.000000 -39.417092 -0.003189
    CHANNELS 3 Yrotation Xrotation Zrotation
    JOINT LeftToe
    {
     OFFSET 0.000000 -7.579396 17.243563
     CHANNELS 3 Yrotation Xrotation Zrotation
     End Site
     {
      OFFSET 0.000000 -1.500329 6.694466
     }
    }
   }
  }
 }
}
MOTION
Frames: 8
Frame Time: 0.008333
0.000000 87.345680 0.000000 0.000000 -5.767889 0.000000 0.000000 11.653876 0.000000 0.000000 -5.885988 0.000000 0.000000 -0.000000 0.000000 0.000000 -0.000000 0.000000 0.000000 12.528808 0.000000 0.000000 0.711711 0.000000 0.000000 -0.000000 0.000000 0.000000 -0.000000 0.000000 2.309063 -0.000000 0.000000 -2.309063 -0.000000 -0.000000 0.000000 -0.000000 0.000000 0.000000 0.000000 0.000000 -2.309063 0.000000 0.000000 2.309063 -0.000000 0.000000 0.000000 8.520374 0.000000 0.000000 1.905768 0.000000 -0.000000 -4.658254 0.000000 0.000000 -0.000000 0.000000 0.000000 8.520374 0.000000 0.000000 1.905768 0.000000 -0.000000 -4.658254 0.000000 0.000000 -0.000000 0.000000
23.611424 88.845702 6.379116 105.383453 1.644848 3.360619 -10.661860 15.542812 1.228547 -6.117496 8.914706 1.056342 -7.644218 11.156957 1.172573 -6.117490 8.914708 1.056338 17.830495 17.193965 -15.424336 26.218336 -3.991059 -23.774777 14.643741 -0.259484 -17.686439 -41.596391 -21.265833 65.777989 132.299643 11.600526 5.161621 16.225649 2.521068 -31.830233 -0.202479 -7.006472 -10.013272 -8.585923 -34.063129 -75.859819 -68.900874 22.372008 1.451399 -12.773963 0.748322 21.032991 -8.860052 -16.731772 -3.478452 -5.959079 20.115012 2.904265 22.347449 -0.993286 -2.875414 -0.134694 -0.124488 -0.181017 1.597437 0.593016 2.810182 4.671412 14.202643 1.624976 4.750352 -9.870389 -10.097781 -0.040534 -0.753206 -0.292145
23.761698 88.873662 6.389016 105.688611 1.366552 3.311874 -10.627880 15.464497 1.244186 -6.092377 8.857071 1.057682 -7.612558 11.084921 1.175835 -6.092370 8.857074 1.057678 17.886232 17.255594 -15.354167 26.264650 -3.915784 -23.693343 14.594864 -0.231881 -17.620611 -39.401076 -20.449219 65.521710 131.750789 11.539188 5.945402 16.463097 2.608924 -32.490440 -0.006592 -6.786134 -9.974099 -8.432635 -33.275242 -76.205259 -68.320811 22.337430 1.336415 -12.665290 0.784195 20.925478 -9.127297 -16.244381 -3.458027 -5.994707 19.965808 2.925648 22.289265 -1.055666 -2.875651 -0.111276 -0.095150 -0.181294 1.476764 0.845433 2.891734 4.591300 14.248855 1.632166 4.745036 -9.753093 -10.029058 -0.032415 -0.729139 -0.309680
23.929250 88.905100 6.401534 105.994935 1.092635 3.257531 -10.579784 15.375362 1.262323 -6.060066 8.797668 1.060444 -7.571846 11.010689 1.181076 -6.060057 8.797674 1.060439 17.932418 17.317851 -15.278401 26.295448 -3.843425 -23.600742 14.534417 -0.146437 -17.546439 -37.052404 -19.572802 65.328434 131.073867 11.606336 6.654631 16.708477 2.646935 -32.969007 0.180823 -6.558469 -9.917963 -8.239654 -32.494176 -76.576759 -67.699973 22.331717 1.208658 -12.558967 0.831200 20.821976 -9.389836 -15.748116 -3.433836 -6.029164 19.812856 2.949668 22.233975 -1.114666 -2.876077 -0.092808 -0.075628 -0.182483 1.380350 1.110204 2.981557 4.523497 14.271938 1.636264 4.741391 -9.613519 -9.982033 -0.028021 -0.715782 -0.306580
24.111446 88.938160 6.414341 106.319702 0.809699 3.205396 -10.529887 15.286441 1.277946 -6.021575 8.735430 1.064415 -7.523356 10.932922 1.188019 -6.021563 8.735438 1.064409 17.967064 17.382693 -15.196510 26.307562 -3.772137 -23.495390 14.457288 0.008976 -17.464088 -34.629605 -18.667675 65.222733 130.290234 11.756894 7.290541 16.938235 2.638684 -33.178539 0.363531 -6.326698 -9.845273 -8.004682 -31.710066 -76.974255 -67.049266 22.372238 1.049593 -12.446587 0.886760 20.727302 -9.652316 -15.239617 -3.421752 -6.057510 19.661306 2.974496 22.183248 -1.154636 -2.878972 -0.060291 -0.080475 -0.174714 1.295762 1.394797 3.070892 4.482330 14.276640 1.638333 4.737851 -9.460220 -9.971505 -0.024866 -0.704392 -0.273593
24.300939 88.970958 6.428710 106.647470 0.539408 3.149913 -10.455317 15.178436 1.305874 -5.977023 8.670662 1.069961 -7.467234 10.852007 1.197110 -5.977008 8.670673 1.069956 17.988465 17.450850 -15.109906 26.299084 -3.701081 -23.378591 14.364750 0.188689 -17.368410 -32.216102 -17.738390 65.195558 129.440295 11.932833 7.888132 17.115278 2.613322 -33.118637 0.541919 -6.092010 -9.756262 -7.745454 -30.914016 -77.390873 -66.369903 22.464742 0.867572 -12.340229 0.946073 20.655018 -9.893457 -14.735988 -3.406357 -6.075508 19.513635 2.998067 22.116726 -1.220893 -2.869792 -0.051712 -0.071597 -0.175549 1.245920 1.672203 3.163480 4.462756 14.273977 1.638847 4.744539 -9.301967 -9.995992 -0.023985 -0.693913 -0.218811
24.495450 89.001865 6.442622 106.986659 0.271859 3.098532 -10.366103 15.063935 1.341850 -5.925279 8.603319 1.078703 -7.402021 10.767913 1.210403 -5.925258 8.603335 1.078700 17.996170 17.520697 -15.022441 26.270990 -3.631500 -23.255646 14.255550 0.347132 -17.255259 -29.871045 -16.774734 65.235355 128.557682 12.101043 8.485400 17.211339 2.589268 -32.893746 0.713360 -5.861643 -9.654048 -7.492496 -30.106215 -77.821808 -65.660015 22.605219 0.675058 -12.244322 1.006239 20.618700 -10.113667 -14.232664 -3.398459 -6.085411 19.367171 3.019511 22.017451 -1.297652 -2.852657 -0.052113 -0.060850 -0.177062 1.221640 1.943602 3.252460 4.459209 14.278298 1.637140 4.752124 -9.153930 -10.028936 -0.025648 -0.681624 -0.165509
24.690805 89.029463 6.458676 107.337954 0.022020 3.038075 -10.253053 14.935638 1.406457 -5.867135 8.532431 1.091428 -7.328698 10.679437 1.228875 -5.867109 8.532452 1.091427 17.991952 17.589251 -14.935045 26.226408 -3.566504 -23.128776 14.135428 0.469742 -17.122719 -27.632863 -15.764764 65.344264 127.671273 12.246026 9.119656 17.251943 2.565744 -32.647520 0.878998 -5.640017 -9.542670 -7.266766 -29.293350 -78.266173 -64.908265 22.777864 0.477710 -12.162204 1.064725 20.611405 -10.318591 -13.739637 -3.385453 -6.096904 19.216956 3.041632 21.928464 -1.405193 -2.832489 -0.065520 -0.022182 -0.178000 1.220368 2.193356 3.356915 4.465650 14.286979 1.630161 4.742293 -9.000371 -10.047485 -0.032582 -0.685186 -0.131091
